<svg xmlns="http://www.w3.org/2000/svg" width="120" height="220" viewBox="0 0 120 220">
  <rect width="120" height="220" fill="#0d0d0d" rx="8"/>
  <clipPath id="clip0"><rect width="120" height="220"/></clipPath>
  <g clip-path="url(#clip0)" font-family="'Courier New',Courier,monospace" font-size="14">

    <!-- Column 1 -->
    <g>
      <text x="10" y="0"  fill="#002200">1</text>
      <text x="10" y="14" fill="#003300">0</text>
      <text x="10" y="28" fill="#005500">1</text>
      <text x="10" y="42" fill="#007700">1</text>
      <text x="10" y="56" fill="#009900">0</text>
      <text x="10" y="70" fill="#00bb00">1</text>
      <text x="10" y="84" fill="#00dd00">0</text>
      <text x="10" y="98" fill="#00ff41">1</text>
      <animateTransform attributeName="transform" type="translate" from="0,-112" to="0,220" dur="2.6s" repeatCount="indefinite" begin="0s"/>
    </g>

    <!-- Column 2 -->
    <g>
      <text x="28" y="0"  fill="#002200">0</text>
      <text x="28" y="14" fill="#003300">1</text>
      <text x="28" y="28" fill="#005500">0</text>
      <text x="28" y="42" fill="#007700">0</text>
      <text x="28" y="56" fill="#009900">1</text>
      <text x="28" y="70" fill="#00bb00">0</text>
      <text x="28" y="84" fill="#00dd00">1</text>
      <text x="28" y="98" fill="#00ff41">0</text>
      <animateTransform attributeName="transform" type="translate" from="0,-112" to="0,220" dur="3.1s" repeatCount="indefinite" begin="-1.4s"/>
    </g>

    <!-- Column 3 -->
    <g>
      <text x="46" y="0"  fill="#002200">1</text>
      <text x="46" y="14" fill="#003300">1</text>
      <text x="46" y="28" fill="#005500">0</text>
      <text x="46" y="42" fill="#007700">1</text>
      <text x="46" y="56" fill="#009900">0</text>
      <text x="46" y="70" fill="#00bb00">0</text>
      <text x="46" y="84" fill="#00dd00">1</text>
      <text x="46" y="98" fill="#00ff41">1</text>
      <animateTransform attributeName="transform" type="translate" from="0,-112" to="0,220" dur="2.9s" repeatCount="indefinite" begin="-0.7s"/>
    </g>

    <!-- Column 4 -->
    <g>
      <text x="64" y="0"  fill="#002200">0</text>
      <text x="64" y="14" fill="#003300">0</text>
      <text x="64" y="28" fill="#005500">1</text>
      <text x="64" y="42" fill="#007700">0</text>
      <text x="64" y="56" fill="#009900">1</text>
      <text x="64" y="70" fill="#00bb00">1</text>
      <text x="64" y="84" fill="#00dd00">0</text>
      <text x="64" y="98" fill="#00ff41">0</text>
      <animateTransform attributeName="transform" type="translate" from="0,-112" to="0,220" dur="3.4s" repeatCount="indefinite" begin="-2.0s"/>
    </g>

    <!-- Column 5 -->
    <g>
      <text x="82" y="0"  fill="#002200">1</text>
      <text x="82" y="14" fill="#003300">0</text>
      <text x="82" y="28" fill="#005500">0</text>
      <text x="82" y="42" fill="#007700">1</text>
      <text x="82" y="56" fill="#009900">1</text>
      <text x="82" y="70" fill="#00bb00">0</text>
      <text x="82" y="84" fill="#00dd00">1</text>
      <text x="82" y="98" fill="#00ff41">0</text>
      <animateTransform attributeName="transform" type="translate" from="0,-112" to="0,220" dur="2.3s" repeatCount="indefinite" begin="-1.8s"/>
    </g>

    <!-- Column 6 -->
    <g>
      <text x="100" y="0"  fill="#002200">0</text>
      <text x="100" y="14" fill="#003300">1</text>
      <text x="100" y="28" fill="#005500">1</text>
      <text x="100" y="42" fill="#007700">0</text>
      <text x="100" y="56" fill="#009900">0</text>
      <text x="100" y="70" fill="#00bb00">1</text>
      <text x="100" y="84" fill="#00dd00">0</text>
      <text x="100" y="98" fill="#00ff41">1</text>
      <animateTransform attributeName="transform" type="translate" from="0,-112" to="0,220" dur="3.0s" repeatCount="indefinite" begin="-0.3s"/>
    </g>

  </g>
</svg>
